<mxfile host="app.diagrams.net" agent="Mozilla/5.0 (Windows NT 10.0; Win64; x64) AppleWebKit/537.36 (KHTML, like Gecko) Chrome/139.0.0.0 Safari/537.36" version="28.1.1">
  <diagram name="Page-1" id="hId_z6nj5ehB06tz2Tm5">
    <mxGraphModel dx="1225" dy="773" grid="1" gridSize="10" guides="1" tooltips="1" connect="1" arrows="1" fold="1" page="1" pageScale="1" pageWidth="850" pageHeight="1100" math="0" shadow="0">
      <root>
        <mxCell id="0" />
        <mxCell id="1" parent="0" />
        <mxCell id="HBcbBVoYGgbt2iBhkjOB-11" style="edgeStyle=orthogonalEdgeStyle;rounded=0;orthogonalLoop=1;jettySize=auto;html=1;exitX=0.5;exitY=1;exitDx=0;exitDy=0;entryX=0;entryY=0.5;entryDx=0;entryDy=0;fontStyle=0" parent="1" source="HBcbBVoYGgbt2iBhkjOB-1" target="HBcbBVoYGgbt2iBhkjOB-4" edge="1">
          <mxGeometry relative="1" as="geometry" />
        </mxCell>
        <mxCell id="HBcbBVoYGgbt2iBhkjOB-1" value="Libraries (.lib)" style="rounded=1;whiteSpace=wrap;html=1;strokeWidth=2;fontSize=14;fontStyle=0;fillColor=#d5e8d4;strokeColor=#82b366;" parent="1" vertex="1">
          <mxGeometry x="148" y="142" width="120" height="60" as="geometry" />
        </mxCell>
        <mxCell id="HBcbBVoYGgbt2iBhkjOB-9" style="edgeStyle=orthogonalEdgeStyle;rounded=0;orthogonalLoop=1;jettySize=auto;html=1;exitX=0.5;exitY=1;exitDx=0;exitDy=0;entryX=0.5;entryY=0;entryDx=0;entryDy=0;fontStyle=0" parent="1" source="HBcbBVoYGgbt2iBhkjOB-2" target="HBcbBVoYGgbt2iBhkjOB-4" edge="1">
          <mxGeometry relative="1" as="geometry" />
        </mxCell>
        <mxCell id="HBcbBVoYGgbt2iBhkjOB-2" value="Gate Level Netlist" style="rounded=1;whiteSpace=wrap;html=1;strokeWidth=2;fontSize=14;fontStyle=0;fillColor=#d5e8d4;strokeColor=#82b366;" parent="1" vertex="1">
          <mxGeometry x="348" y="142" width="120" height="60" as="geometry" />
        </mxCell>
        <mxCell id="HBcbBVoYGgbt2iBhkjOB-10" style="edgeStyle=orthogonalEdgeStyle;rounded=0;orthogonalLoop=1;jettySize=auto;html=1;exitX=0.5;exitY=1;exitDx=0;exitDy=0;entryX=1;entryY=0.5;entryDx=0;entryDy=0;fontStyle=0" parent="1" source="HBcbBVoYGgbt2iBhkjOB-3" target="HBcbBVoYGgbt2iBhkjOB-4" edge="1">
          <mxGeometry relative="1" as="geometry" />
        </mxCell>
        <mxCell id="HBcbBVoYGgbt2iBhkjOB-3" value="Constraints (.sdc)" style="rounded=1;whiteSpace=wrap;html=1;strokeWidth=2;fontSize=14;fontStyle=0;fillColor=#d5e8d4;strokeColor=#82b366;" parent="1" vertex="1">
          <mxGeometry x="548" y="142" width="120" height="60" as="geometry" />
        </mxCell>
        <mxCell id="HBcbBVoYGgbt2iBhkjOB-12" style="edgeStyle=orthogonalEdgeStyle;rounded=0;orthogonalLoop=1;jettySize=auto;html=1;exitX=0.5;exitY=1;exitDx=0;exitDy=0;entryX=0.5;entryY=0;entryDx=0;entryDy=0;fontStyle=0" parent="1" source="HBcbBVoYGgbt2iBhkjOB-4" target="HBcbBVoYGgbt2iBhkjOB-5" edge="1">
          <mxGeometry relative="1" as="geometry" />
        </mxCell>
        <mxCell id="HBcbBVoYGgbt2iBhkjOB-4" value="STA" style="ellipse;whiteSpace=wrap;html=1;aspect=fixed;strokeWidth=2;fontSize=14;fontStyle=0;fillColor=#ffe6cc;strokeColor=#d79b00;" parent="1" vertex="1">
          <mxGeometry x="368" y="262" width="80" height="80" as="geometry" />
        </mxCell>
        <mxCell id="HBcbBVoYGgbt2iBhkjOB-5" value="Timing Reports&lt;div&gt;Log Files&lt;/div&gt;" style="rounded=1;whiteSpace=wrap;html=1;strokeWidth=2;fontSize=14;fontStyle=0;fillColor=#f8cecc;strokeColor=#b85450;" parent="1" vertex="1">
          <mxGeometry x="348" y="422" width="120" height="60" as="geometry" />
        </mxCell>
        <mxCell id="WHp-Qc4TdJ1LshXwCAer-1" value="&lt;b&gt;&lt;font style=&quot;font-size: 30px;&quot;&gt;Inputs and Outputs of STA&lt;/font&gt;&lt;/b&gt;" style="text;html=1;align=center;verticalAlign=middle;resizable=0;points=[];autosize=1;strokeColor=none;fillColor=none;" vertex="1" parent="1">
          <mxGeometry x="241" y="16" width="396" height="48" as="geometry" />
        </mxCell>
        <mxCell id="WHp-Qc4TdJ1LshXwCAer-23" style="edgeStyle=orthogonalEdgeStyle;rounded=0;orthogonalLoop=1;jettySize=auto;html=1;exitX=0.5;exitY=1;exitDx=0;exitDy=0;" edge="1" parent="1" source="WHp-Qc4TdJ1LshXwCAer-2" target="WHp-Qc4TdJ1LshXwCAer-21">
          <mxGeometry relative="1" as="geometry" />
        </mxCell>
        <mxCell id="WHp-Qc4TdJ1LshXwCAer-2" value="Libraries (.libs)" style="rounded=1;whiteSpace=wrap;html=1;fontSize=14;fillColor=#d5e8d4;strokeColor=#82b366;" vertex="1" parent="1">
          <mxGeometry x="80" y="640" width="120" height="60" as="geometry" />
        </mxCell>
        <mxCell id="WHp-Qc4TdJ1LshXwCAer-24" value="" style="edgeStyle=orthogonalEdgeStyle;rounded=0;orthogonalLoop=1;jettySize=auto;html=1;" edge="1" parent="1" source="WHp-Qc4TdJ1LshXwCAer-3" target="WHp-Qc4TdJ1LshXwCAer-21">
          <mxGeometry relative="1" as="geometry" />
        </mxCell>
        <mxCell id="WHp-Qc4TdJ1LshXwCAer-3" value="Gate Level Netlist" style="rounded=1;whiteSpace=wrap;html=1;fontSize=14;fillColor=#d5e8d4;strokeColor=#82b366;" vertex="1" parent="1">
          <mxGeometry x="241" y="640" width="120" height="60" as="geometry" />
        </mxCell>
        <mxCell id="WHp-Qc4TdJ1LshXwCAer-25" value="" style="edgeStyle=orthogonalEdgeStyle;rounded=0;orthogonalLoop=1;jettySize=auto;html=1;" edge="1" parent="1" source="WHp-Qc4TdJ1LshXwCAer-4" target="WHp-Qc4TdJ1LshXwCAer-21">
          <mxGeometry relative="1" as="geometry" />
        </mxCell>
        <mxCell id="WHp-Qc4TdJ1LshXwCAer-4" value="Constraints (.sdc)" style="rounded=1;whiteSpace=wrap;html=1;fontSize=14;fillColor=#d5e8d4;strokeColor=#82b366;" vertex="1" parent="1">
          <mxGeometry x="400" y="640" width="120" height="60" as="geometry" />
        </mxCell>
        <mxCell id="WHp-Qc4TdJ1LshXwCAer-26" value="" style="edgeStyle=orthogonalEdgeStyle;rounded=0;orthogonalLoop=1;jettySize=auto;html=1;" edge="1" parent="1" source="WHp-Qc4TdJ1LshXwCAer-5" target="WHp-Qc4TdJ1LshXwCAer-21">
          <mxGeometry relative="1" as="geometry" />
        </mxCell>
        <mxCell id="WHp-Qc4TdJ1LshXwCAer-5" value="SPEF" style="rounded=1;whiteSpace=wrap;html=1;fontSize=14;fillColor=#d5e8d4;strokeColor=#82b366;" vertex="1" parent="1">
          <mxGeometry x="560" y="640" width="120" height="60" as="geometry" />
        </mxCell>
        <mxCell id="WHp-Qc4TdJ1LshXwCAer-27" value="" style="edgeStyle=orthogonalEdgeStyle;rounded=0;orthogonalLoop=1;jettySize=auto;html=1;" edge="1" parent="1" source="WHp-Qc4TdJ1LshXwCAer-6" target="WHp-Qc4TdJ1LshXwCAer-21">
          <mxGeometry relative="1" as="geometry" />
        </mxCell>
        <mxCell id="WHp-Qc4TdJ1LshXwCAer-6" value="SDF" style="rounded=1;whiteSpace=wrap;html=1;fontSize=14;fillColor=#d5e8d4;strokeColor=#82b366;" vertex="1" parent="1">
          <mxGeometry x="720" y="640" width="120" height="60" as="geometry" />
        </mxCell>
        <mxCell id="WHp-Qc4TdJ1LshXwCAer-9" value="Timing Reports" style="rounded=1;whiteSpace=wrap;html=1;fontSize=14;fillColor=#f8cecc;strokeColor=#b85450;" vertex="1" parent="1">
          <mxGeometry x="280" y="880" width="120" height="60" as="geometry" />
        </mxCell>
        <mxCell id="WHp-Qc4TdJ1LshXwCAer-10" value="Log Files" style="rounded=1;whiteSpace=wrap;html=1;fontSize=14;fillColor=#f8cecc;strokeColor=#b85450;" vertex="1" parent="1">
          <mxGeometry x="517" y="880" width="120" height="60" as="geometry" />
        </mxCell>
        <mxCell id="WHp-Qc4TdJ1LshXwCAer-28" style="edgeStyle=orthogonalEdgeStyle;rounded=0;orthogonalLoop=1;jettySize=auto;html=1;exitX=0.5;exitY=1;exitDx=0;exitDy=0;entryX=0.5;entryY=0;entryDx=0;entryDy=0;" edge="1" parent="1" source="WHp-Qc4TdJ1LshXwCAer-21" target="WHp-Qc4TdJ1LshXwCAer-9">
          <mxGeometry relative="1" as="geometry" />
        </mxCell>
        <mxCell id="WHp-Qc4TdJ1LshXwCAer-29" style="edgeStyle=orthogonalEdgeStyle;rounded=0;orthogonalLoop=1;jettySize=auto;html=1;exitX=0.5;exitY=1;exitDx=0;exitDy=0;entryX=0.5;entryY=0;entryDx=0;entryDy=0;" edge="1" parent="1" source="WHp-Qc4TdJ1LshXwCAer-21" target="WHp-Qc4TdJ1LshXwCAer-10">
          <mxGeometry relative="1" as="geometry" />
        </mxCell>
        <mxCell id="WHp-Qc4TdJ1LshXwCAer-21" value="&lt;span style=&quot;font-size: 14px;&quot;&gt;Static Timing Analysis&lt;/span&gt;" style="rounded=1;whiteSpace=wrap;html=1;fillColor=#ffe6cc;strokeColor=#d79b00;" vertex="1" parent="1">
          <mxGeometry x="80" y="760" width="760" height="60" as="geometry" />
        </mxCell>
      </root>
    </mxGraphModel>
  </diagram>
</mxfile>
